<svg xmlns="http://www.w3.org/2000/svg" xmlns:xlink="http://www.w3.org/1999/xlink" width="91.61" height="59.475" viewBox="0 0 91.61 59.475">
    <defs>
        <clipPath id="clip-path">
            <rect id="Rectangle_466" data-name="Rectangle 466" width="91.61" height="59.475" fill="none"/>
        </clipPath>
    </defs>
    <g id="Header_-_Logo" data-name="Header - Logo" transform="translate(-914.482 -9.123)">
        <g id="Logo" transform="translate(914.482 9.123)" clip-path="url(#clip-path)">
            <path id="Path_5" data-name="Path 5" d="M0,70.612C0,60.968,7.578,53.9,17.864,53.9s17.864,7.072,17.864,16.716S28.151,87.328,17.864,87.328,0,80.256,0,70.612m26.544,0c0-5.557-3.812-9.185-8.68-9.185s-8.68,3.628-8.68,9.185S13,79.8,17.864,79.8s8.68-3.628,8.68-9.185" transform="translate(0 -40.99)" fill="#242121"/>
            <path id="Path_6" data-name="Path 6" d="M175.25,96.636v13.823h-8.128v-3.215c-1.24,2.388-3.72,3.628-7.348,3.628-5.97,0-9.277-3.353-9.277-7.669,0-4.593,3.352-7.44,11.068-7.44h4.96c-.138-2.526-1.837-3.949-5.281-3.949a11.6,11.6,0,0,0-6.751,2.158l-2.939-5.924a20.915,20.915,0,0,1,10.975-2.893c8.083,0,12.721,3.582,12.721,11.481m-8.726,5.832V100.31h-3.766c-2.8,0-3.812,1.01-3.812,2.526,0,1.47,1.194,2.526,3.261,2.526a4.3,4.3,0,0,0,4.317-2.893" transform="translate(-114.46 -64.764)" fill="#242121"/>
            <path id="Path_7" data-name="Path 7" d="M262.136,48.525V82.6h8.725V76.493l2.572-2.617,6.98,8.725h10.562l-11.2-14.236L290.1,57.71H279.771l-8.909,8.68V48.525Z" transform="translate(-199.366 -36.906)" fill="#242121"/>
            <path id="Path_8" data-name="Path 8" d="M149.493,73.118v0" transform="translate(-113.695 -55.609)" fill="#242121"/>
            <path id="Path_9" data-name="Path 9" d="M149,19.628c-1.242-2.863.255-7.331.255-7.331.718-2.771,3.7-6.376,4.275-4.837s1.132.414,1.335-.079.38-3.242,1.1-4.16c.593-.758,1.466-1.448,2.248-1.08.53.25-.024,2.311.789.349A4.038,4.038,0,0,1,160.9.142a1.552,1.552,0,0,1,1.919.432c.709,1.161-.771,2.928-.22,3.405.507.439,2.279-1.613,3.434-1.844.627-.125,1.558-.482,1.808.058.181.391-.143.967.9.613,2.042-.695.54.965,1.162.942,2.944-.106,1.389,1.166,1.389,1.166,1.212,0,2.567.694,1.416,1.788s-1.258.74-.66.765c.794.032.693,1-.209.944l-.9-.055c-.669.077-.876.643-.39.69s.806.285.562.716a2.782,2.782,0,0,1-3.126.394c-1.318-.689-2.712-1.1-3.141-.683-.634.614.882.745,1.632,1.138,1.149.6,2.7,1.942,1.988,2.32-.57.3-1-.318-1.622.05-1.208.71-2.895-.216-2.895-.216-.487,1.565-1.492.692-3.788-.38s-3.842-.922-4.061-.534-.1.283.905.512,1.683,1.351.147,1.449-4.48-.54-6.154.615a5.181,5.181,0,0,0-1.045.975c-.008.007-.019.011-.024.021A11.8,11.8,0,0,1,153.3,11.1c4.837-4.473,16.617-5.363,16.617-5.363-.325-.046-12.093-.114-17.419,5.294a12,12,0,0,0-3.229,4.584,6.3,6.3,0,0,0-.471,1.77,8.449,8.449,0,0,0,.2,2.248" transform="translate(-112.945 0)" fill="#6a8766"/>
            <path id="Path_10" data-name="Path 10" d="M3.614,203.14H5.736v1.845H3.675v6.244h-2.4v-6.244H0V203.14H1.276v-.369a2.888,2.888,0,0,1,3.2-3.076,3.4,3.4,0,0,1,1.83.446l-.63,1.738a1.678,1.678,0,0,0-.969-.292c-.707,0-1.092.385-1.092,1.2Z" transform="translate(0 -151.877)" fill="#242121"/>
            <path id="Path_11" data-name="Path 11" d="M34.584,213.309v8.273H32.308V220.6a3.347,3.347,0,0,1-2.568,1.107c-2.076,0-3.537-1.169-3.537-3.721v-4.675h2.4v4.321c0,1.384.615,2,1.676,2,1.107,0,1.907-.707,1.907-2.23v-4.091Z" transform="translate(-19.929 -162.231)" fill="#242121"/>
            <path id="Path_12" data-name="Path 12" d="M70.514,212.8v2.214c-.2-.015-.354-.03-.538-.03a2.033,2.033,0,0,0-2.2,2.307v3.906h-2.4v-8.273h2.291v1.092a3.339,3.339,0,0,1,2.845-1.215" transform="translate(-49.723 -161.841)" fill="#242121"/>
            <path id="Path_13" data-name="Path 13" d="M97.407,216.455v4.736h-2.4v-4.367c0-1.338-.615-1.953-1.676-1.953-1.153,0-1.984.707-1.984,2.23v4.091h-2.4v-8.273H91.24v.969a3.622,3.622,0,0,1,2.737-1.092c1.953,0,3.429,1.138,3.429,3.66" transform="translate(-67.65 -161.84)" fill="#242121"/>
            <path id="Path_14" data-name="Path 14" d="M127.261,201.148h2.4v8.273h-2.4Zm-.292-2.491a1.371,1.371,0,0,1,1.492-1.338,1.347,1.347,0,0,1,1.492,1.292,1.5,1.5,0,0,1-2.983.046" transform="translate(-96.565 -150.07)" fill="#242121"/>
            <path id="Path_15" data-name="Path 15" d="M147.161,215.37a3.428,3.428,0,0,1-1.953.523c-1.953,0-3.091-1-3.091-2.968v-3.4h-1.276v-1.845h1.276v-2.014h2.4v2.014h2.061v1.845h-2.061v3.368a.965.965,0,0,0,1.03,1.092,1.617,1.617,0,0,0,.969-.307Z" transform="translate(-107.116 -156.419)" fill="#242121"/>
            <path id="Path_16" data-name="Path 16" d="M177.223,213.309v8.273h-2.276V220.6a3.347,3.347,0,0,1-2.568,1.107c-2.076,0-3.537-1.169-3.537-3.721v-4.675h2.4v4.321c0,1.384.615,2,1.676,2,1.107,0,1.907-.707,1.907-2.23v-4.091Z" transform="translate(-128.412 -162.231)" fill="#242121"/>
            <path id="Path_17" data-name="Path 17" d="M212.952,212.8v2.214c-.2-.015-.354-.03-.538-.03a2.033,2.033,0,0,0-2.2,2.307v3.906h-2.4v-8.273h2.291v1.092a3.339,3.339,0,0,1,2.845-1.215" transform="translate(-158.053 -161.841)" fill="#242121"/>
            <path id="Path_18" data-name="Path 18" d="M231.081,216.333h4.075a2.066,2.066,0,0,0-4.075,0m6.29,1.4h-6.259a2.206,2.206,0,0,0,2.368,1.661,2.8,2.8,0,0,0,2.076-.8l1.276,1.384a4.332,4.332,0,0,1-3.414,1.338c-2.86,0-4.721-1.8-4.721-4.26a4.212,4.212,0,0,1,4.414-4.26,4.1,4.1,0,0,1,4.306,4.29c0,.184-.031.446-.046.646" transform="translate(-173.934 -161.841)" fill="#242121"/>
            <rect id="Rectangle_465" data-name="Rectangle 465" width="1.092" height="11.41" transform="translate(64.575 47.941)" fill="#242121"/>
            <path id="Path_19" data-name="Path 19" d="M284.674,219.544v-1.323h-2.537c-1.568,0-2.076.615-2.076,1.446,0,.938.754,1.522,2.045,1.522a2.588,2.588,0,0,0,2.568-1.646m1.092-2.583v5.013H284.72v-1.261a3.037,3.037,0,0,1-2.783,1.338c-1.83,0-2.953-.954-2.953-2.353,0-1.246.8-2.292,3.122-2.292h2.568v-.492c0-1.384-.784-2.138-2.291-2.138a4.119,4.119,0,0,0-2.691.954l-.492-.815a5.136,5.136,0,0,1,3.291-1.092c2.091,0,3.276,1.046,3.276,3.137" transform="translate(-212.18 -162.622)" fill="#242121"/>
            <path id="Path_20" data-name="Path 20" d="M320.722,217.283v4.69H319.63v-4.583a2.259,2.259,0,0,0-2.43-2.584,2.652,2.652,0,0,0-2.829,2.922v4.244h-1.092v-8.089h1.046v1.492a3.4,3.4,0,0,1,3.076-1.553,3.1,3.1,0,0,1,3.322,3.46" transform="translate(-238.262 -162.622)" fill="#242121"/>
            <path id="Path_21" data-name="Path 21" d="M355.464,207.575a3.01,3.01,0,1,0-3,3.152,2.958,2.958,0,0,0,3-3.152m1.077-7.366v11.41h-1.046v-1.6a3.5,3.5,0,0,1-3.122,1.676,4.114,4.114,0,0,1,0-8.227,3.533,3.533,0,0,1,3.076,1.6v-4.859Z" transform="translate(-264.931 -152.268)" fill="#242121"/>
        </g>
    </g>
</svg>
