<svg width="92" height="60" viewBox="0 0 92 60" fill="none" xmlns="http://www.w3.org/2000/svg">
<g clip-path="url(#clip0_389_296)">
<mask id="mask0_389_296" style="mask-type:luminance" maskUnits="userSpaceOnUse" x="0" y="0" width="92" height="60">
<path d="M91.61 0H0V59.475H91.61V0Z" fill="white"/>
</mask>
<g mask="url(#mask0_389_296)">
<path d="M0 29.6217C0 19.9777 7.578 12.9097 17.864 12.9097C28.15 12.9097 35.728 19.9817 35.728 29.6257C35.728 39.2697 28.151 46.3377 17.864 46.3377C7.577 46.3377 0 39.2657 0 29.6217ZM26.544 29.6217C26.544 24.0647 22.732 20.4367 17.864 20.4367C12.996 20.4367 9.184 24.0647 9.184 29.6217C9.184 35.1787 13 38.8097 17.864 38.8097C22.728 38.8097 26.544 35.1817 26.544 29.6247" fill="white"/>
<path d="M60.7901 31.8717V45.6947H52.6621V42.4797C51.4221 44.8677 48.9421 46.1077 45.3141 46.1077C39.3441 46.1077 36.0371 42.7547 36.0371 38.4387C36.0371 33.8457 39.3891 30.9987 47.1051 30.9987H52.0651C51.9271 28.4727 50.2281 27.0497 46.7841 27.0497C44.3638 27.0472 42.0032 27.8017 40.0331 29.2077L37.0941 23.2837C40.4159 21.3262 44.2141 20.325 48.0691 20.3907C56.1521 20.3907 60.7901 23.9727 60.7901 31.8717ZM52.0641 37.7037V35.5457H48.2981C45.4981 35.5457 44.4861 36.5557 44.4861 38.0717C44.4861 39.5417 45.6801 40.5977 47.7471 40.5977C48.6838 40.6525 49.6127 40.3995 50.3921 39.8772C51.1715 39.3548 51.7587 38.5909 52.0641 37.7037Z" fill="white"/>
<path d="M62.77 11.6187V45.6936H71.495V39.5866L74.067 36.9697L81.047 45.6946H91.609L80.409 31.4586L90.734 20.8036H80.405L71.496 29.4837V11.6187H62.77Z" fill="white"/>
<path d="M36.0549 19.6278C34.8129 16.7648 36.3099 12.2968 36.3099 12.2968C37.0279 9.52578 40.0099 5.92078 40.5849 7.45978C41.1599 8.99878 41.7169 7.87378 41.9199 7.38078C42.1229 6.88778 42.2999 4.13878 43.0199 3.22078C43.6129 2.46278 44.4859 1.77278 45.2679 2.14078C45.7979 2.39078 45.2439 4.45178 46.0569 2.48978C46.3621 1.49114 47.0424 0.649584 47.9549 0.141778C48.2754 -0.0189925 48.6417 -0.0638095 48.9915 0.0149444C49.3414 0.0936983 49.6531 0.291164 49.8739 0.573778C50.5829 1.73478 49.1029 3.50178 49.6539 3.97878C50.1609 4.41778 51.9329 2.36578 53.0879 2.13478C53.7149 2.00978 54.6459 1.65278 54.8959 2.19278C55.0769 2.58378 54.7529 3.15978 55.7959 2.80578C57.8379 2.11078 56.3359 3.77078 56.9579 3.74778C59.9019 3.64178 58.3469 4.91378 58.3469 4.91378C59.5589 4.91378 60.9139 5.60778 59.7629 6.70178C58.6119 7.79578 58.5049 7.44178 59.1029 7.46678C59.8969 7.49878 59.7959 8.46678 58.8939 8.41078L57.9939 8.35578C57.3249 8.43278 57.1179 8.99878 57.6039 9.04578C58.0899 9.09278 58.4099 9.33078 58.1659 9.76178C57.7457 10.1358 57.2221 10.3736 56.664 10.444C56.1059 10.5143 55.5397 10.4138 55.0399 10.1558C53.7219 9.46678 52.3279 9.05578 51.8989 9.47278C51.2649 10.0868 52.7809 10.2178 53.5309 10.6108C54.6799 11.2108 56.2309 12.5528 55.5189 12.9308C54.9489 13.2308 54.5189 12.6128 53.8969 12.9808C52.6889 13.6908 51.0019 12.7648 51.0019 12.7648C50.5149 14.3298 49.5099 13.4568 47.2139 12.3848C44.9179 11.3128 43.3719 11.4628 43.1529 11.8508C42.9339 12.2388 43.0529 12.1338 44.0579 12.3628C45.0629 12.5918 45.7409 13.7138 44.2049 13.8118C42.6689 13.9098 39.7249 13.2718 38.0509 14.4268C37.6592 14.7019 37.3075 15.0301 37.0059 15.4018C36.9979 15.4088 36.9869 15.4128 36.9819 15.4228C37.7512 13.7369 38.9067 12.2559 40.3549 11.0998C45.1919 6.62678 56.9719 5.73678 56.9719 5.73678C56.6469 5.69078 44.8789 5.62278 39.5529 11.0308C38.1296 12.2823 37.0231 13.8532 36.3239 15.6148C36.0815 16.1787 35.9228 16.775 35.8529 17.3848C35.8187 18.1397 35.886 18.8958 36.0529 19.6328" fill="#6A8766"/>
<path d="M3.614 51.263H5.736V53.108H3.675V59.352H1.275V53.108H0V51.263H1.276V50.894C1.24583 50.4715 1.30896 50.0476 1.46091 49.6522C1.61286 49.2568 1.84992 48.8998 2.15528 48.6062C2.46064 48.3127 2.82682 48.0899 3.22788 47.9537C3.62893 47.8175 4.05504 47.7712 4.476 47.818C5.11583 47.7914 5.75017 47.946 6.306 48.264L5.676 50.002C5.39075 49.8073 5.05235 49.7053 4.707 49.71C4 49.71 3.615 50.095 3.615 50.91L3.614 51.263Z" fill="white"/>
<path d="M14.6549 51.0776V59.3506H12.3789V58.3686C12.056 58.7274 11.6593 59.0121 11.2161 59.2032C10.7728 59.3942 10.2935 59.4872 9.81093 59.4756C7.73493 59.4756 6.27393 58.3066 6.27393 55.7546V51.0796H8.67393V55.4006C8.67393 56.7846 9.28893 57.4006 10.3499 57.4006C11.4569 57.4006 12.2569 56.6936 12.2569 55.1706V51.0796L14.6549 51.0776Z" fill="white"/>
<path d="M20.7908 50.9589V53.1729C20.5908 53.1579 20.4368 53.1429 20.2528 53.1429C19.9475 53.1147 19.6398 53.156 19.3526 53.2636C19.0655 53.3712 18.8064 53.5423 18.5948 53.7643C18.3832 53.9862 18.2245 54.2531 18.1307 54.545C18.0368 54.8369 18.0102 55.1462 18.0528 55.4499V59.3559H15.6528V51.0829H17.9438V52.1749C18.2849 51.7579 18.7217 51.4296 19.2171 51.218C19.7125 51.0064 20.2518 50.9179 20.7888 50.9599" fill="white"/>
<path d="M29.7569 54.6149V59.3509H27.3569V54.9839C27.3569 53.6459 26.7419 53.0309 25.6809 53.0309C24.5279 53.0309 23.6969 53.7379 23.6969 55.2609V59.3519H21.2969V51.0789H23.5899V52.0479C23.9441 51.6843 24.3708 51.3991 24.8423 51.211C25.3138 51.0229 25.8196 50.936 26.3269 50.9559C28.2799 50.9559 29.7559 52.0939 29.7559 54.6159" fill="white"/>
<path d="M30.6958 51.0776H33.0958V59.3506H30.6958V51.0776ZM30.4038 48.5866C30.4076 48.3987 30.45 48.2136 30.5283 48.0428C30.6067 47.8719 30.7193 47.7191 30.8592 47.5936C30.9991 47.4681 31.1633 47.3727 31.3417 47.3134C31.52 47.2541 31.7086 47.232 31.8958 47.2486C32.0799 47.2286 32.2662 47.2467 32.443 47.3019C32.6199 47.3571 32.7834 47.4482 32.9234 47.5695C33.0634 47.6907 33.1769 47.8395 33.2568 48.0066C33.3367 48.1737 33.3813 48.3555 33.3878 48.5406C33.3545 48.9096 33.1858 49.2533 32.9143 49.5053C32.6427 49.7574 32.2875 49.9 31.917 49.9057C31.5465 49.9114 31.1871 49.7798 30.9079 49.5363C30.6287 49.2927 30.4485 48.9544 30.4038 48.5866Z" fill="white"/>
<path d="M40.0451 58.9506C39.4615 59.3173 38.7809 59.4996 38.0921 59.4736C36.1391 59.4736 35.0011 58.4736 35.0011 56.5056V53.1056H33.7251V51.2606H35.0011V49.2466H37.4011V51.2606H39.4621V53.1056H37.4011V56.4736C37.3817 56.6162 37.3945 56.7613 37.4385 56.8984C37.4825 57.0354 37.5566 57.1609 37.6553 57.2655C37.7541 57.3702 37.875 57.4515 38.0092 57.5034C38.1435 57.5553 38.2876 57.5766 38.4311 57.5656C38.7787 57.5701 39.1185 57.4624 39.4001 57.2586L40.0451 58.9506Z" fill="white"/>
<path d="M48.8112 51.0776V59.3506H46.5352V58.3686C46.2123 58.7274 45.8156 59.0121 45.3723 59.2032C44.9291 59.3942 44.4497 59.4872 43.9672 59.4756C41.8912 59.4756 40.4302 58.3066 40.4302 55.7546V51.0796H42.8302V55.4006C42.8302 56.7846 43.4452 57.4006 44.5062 57.4006C45.6132 57.4006 46.4132 56.6936 46.4132 55.1706V51.0796L48.8112 51.0776Z" fill="white"/>
<path d="M54.8992 50.9589V53.1729C54.6992 53.1579 54.5452 53.1429 54.3612 53.1429C54.0559 53.1147 53.7482 53.156 53.461 53.2636C53.1739 53.3712 52.9148 53.5423 52.7032 53.7643C52.4916 53.9862 52.333 54.2531 52.2391 54.545C52.1452 54.8369 52.1186 55.1462 52.1612 55.4499V59.3559H49.7612V51.0829H52.0522V52.1749C52.3933 51.7579 52.8301 51.4296 53.3255 51.218C53.8209 51.0064 54.3602 50.9179 54.8972 50.9599" fill="white"/>
<path d="M57.147 54.4916H61.222C61.1411 54.0097 60.8921 53.5721 60.519 53.2564C60.146 52.9408 59.6732 52.7676 59.1845 52.7676C58.6959 52.7676 58.223 52.9408 57.85 53.2564C57.477 53.5721 57.2279 54.0097 57.147 54.4916ZM63.437 55.8916H57.178C57.3065 56.4073 57.6167 56.8592 58.0518 57.1644C58.4869 57.4696 59.0174 57.6074 59.546 57.5526C59.9284 57.5682 60.3098 57.5053 60.6669 57.3677C61.0239 57.2301 61.349 57.0207 61.622 56.7526L62.898 58.1366C62.4614 58.5957 61.9294 58.9535 61.3396 59.1847C60.7497 59.4158 60.1163 59.5148 59.484 59.4746C56.624 59.4746 54.763 57.6746 54.763 55.2146C54.7558 54.6401 54.8662 54.0701 55.0875 53.5398C55.3088 53.0095 55.6362 52.5301 56.0497 52.131C56.4632 51.732 56.9539 51.4218 57.4917 51.2195C58.0295 51.0172 58.6031 50.927 59.177 50.9546C59.7489 50.9252 60.3206 51.0159 60.8553 51.2209C61.3899 51.4258 61.8758 51.7405 62.2814 52.1447C62.6871 52.5488 63.0036 53.0335 63.2105 53.5674C63.4175 54.1013 63.5103 54.6727 63.483 55.2446C63.483 55.4286 63.452 55.6906 63.437 55.8906" fill="white"/>
<path d="M65.6672 47.9409H64.5752V59.3509H65.6672V47.9409Z" fill="white"/>
<path d="M72.4942 56.9217V55.5987H69.9572C68.3892 55.5987 67.8812 56.2137 67.8812 57.0447C67.8812 57.9827 68.6352 58.5667 69.9262 58.5667C70.4734 58.5997 71.0169 58.4581 71.4785 58.1622C71.94 57.8664 72.2957 57.4317 72.4942 56.9207M73.5862 54.3377V59.3507H72.5402V58.0897C72.2383 58.5412 71.8209 58.9035 71.3314 59.1388C70.8419 59.3741 70.2983 59.4739 69.7572 59.4277C67.9272 59.4277 66.8042 58.4737 66.8042 57.0747C66.8042 55.8287 67.6042 54.7827 69.9262 54.7827H72.4942V54.2907C72.4942 52.9067 71.7102 52.1527 70.2032 52.1527C69.2211 52.1397 68.2668 52.4781 67.5122 53.1067L67.0202 52.2917C67.9574 51.5572 69.1208 51.1712 70.3112 51.1997C72.4022 51.1997 73.5872 52.2457 73.5872 54.3367" fill="white"/>
<path d="M82.4601 54.6606V59.3506H81.3681V54.7676C81.4185 54.4299 81.3917 54.0852 81.2898 53.7594C81.1878 53.4336 81.0133 53.1352 80.7795 52.8865C80.5456 52.6378 80.2584 52.4454 79.9395 52.3236C79.6206 52.2019 79.2782 52.154 78.9381 52.1836C78.5513 52.1556 78.1631 52.2127 77.8008 52.351C77.4386 52.4893 77.111 52.7054 76.8413 52.984C76.5715 53.2626 76.3662 53.5969 76.2397 53.9635C76.1132 54.33 76.0686 54.7199 76.1091 55.1056V59.3496H75.0171V51.2606H76.0631V52.7526C76.391 52.2431 76.849 51.8306 77.3898 51.5575C77.9306 51.2845 78.5345 51.1609 79.1391 51.1996C79.5966 51.1634 80.0564 51.2293 80.4853 51.3925C80.9142 51.5556 81.3016 51.8119 81.6194 52.143C81.9372 52.474 82.1776 52.8714 82.3231 53.3066C82.4687 53.7418 82.5158 54.2039 82.4611 54.6596" fill="white"/>
<path d="M90.5329 55.3069C90.5051 54.718 90.305 54.1502 89.9573 53.6741C89.6097 53.1979 89.1299 52.8343 88.5775 52.6284C88.025 52.4226 87.4243 52.3834 86.8498 52.5159C86.2753 52.6484 85.7524 52.9467 85.346 53.3737C84.9395 53.8008 84.6674 54.3378 84.5635 54.9181C84.4595 55.4985 84.5282 56.0965 84.7612 56.6381C84.9941 57.1797 85.3809 57.641 85.8737 57.9647C86.3664 58.2884 86.9434 58.4602 87.5329 58.4589C87.9418 58.4656 88.3476 58.3875 88.7247 58.2294C89.1018 58.0713 89.4421 57.8368 89.724 57.5406C90.0059 57.2444 90.2233 56.893 90.3625 56.5086C90.5018 56.1241 90.5598 55.7149 90.5329 55.3069ZM91.6099 47.9409V59.3509H90.5639V57.7509C90.2398 58.2828 89.7795 58.7186 89.2307 59.0132C88.6819 59.3078 88.0644 59.4507 87.4419 59.4269C86.3621 59.4101 85.3322 58.9693 84.5745 58.1997C83.8168 57.4301 83.3921 56.3934 83.3921 55.3134C83.3921 54.2334 83.8168 53.1967 84.5745 52.4271C85.3322 51.6575 86.3621 51.2168 87.4419 51.1999C88.0489 51.1797 88.6509 51.3164 89.1897 51.5966C89.7285 51.8769 90.186 52.2913 90.5179 52.7999V47.9409H91.6099Z" fill="white"/>
</g>
</g>
<defs>
<clipPath id="clip0_389_296">
<rect width="91.61" height="59.475" fill="white"/>
</clipPath>
</defs>
</svg>
